<svg width="15" height="10" viewBox="0 0 15 10" fill="none" xmlns="http://www.w3.org/2000/svg">
<g id="Frame" clip-path="url(#clip0_2030_389)">
<path id="Vector" d="M0.875069 5.80369L11.4822 5.80369L9.15186 8.13405C8.83043 8.45548 8.83043 8.93762 9.15186 9.25905C9.47328 9.58048 9.95543 9.58048 10.2769 9.25905L13.9733 5.56262C14.2947 5.24119 14.2947 4.75905 13.9733 4.43762L10.2769 0.741193C9.95543 0.419764 9.47328 0.419764 9.15186 0.741193C8.83043 1.06262 8.83043 1.54476 9.15186 1.86619L11.4822 4.19655L0.875069 4.19655C0.473284 4.19655 0.0714979 4.51798 0.0714978 5.00012C0.0714978 5.48226 0.473283 5.80369 0.875069 5.80369Z" fill="#4089ED"/>
</g>
<defs>
<clipPath id="clip0_2030_389">
<rect width="14.1429" height="9" fill="white" transform="translate(14.2144 9.50012) rotate(-180)"/>
</clipPath>
</defs>
</svg>
