<svg width="120" height="93" viewBox="0 0 120 93" fill="none" xmlns="http://www.w3.org/2000/svg">
<path fill-rule="evenodd" clip-rule="evenodd" d="M113.51 22.7987C111.93 23.4755 111.022 25.0584 111.115 26.6795L67.4384 45.7295C66.5667 44.2826 65.3509 43.1315 63.9384 42.3371L77.3278 8.88035C78.9653 8.95726 80.5501 8.00889 81.2025 6.39377C82.0132 4.36515 81.0242 2.05686 78.9935 1.24425C76.9668 0.431439 74.6567 1.42234 73.8461 3.45116C73.2055 5.05016 73.686 6.80706 74.8999 7.88323L61.5002 41.3623C59.9458 40.9752 58.2942 40.9793 56.6779 41.4171L43.9795 11.7723C45.166 10.6637 45.5998 8.89045 44.9228 7.31165C44.0595 5.29526 41.7269 4.36923 39.7204 5.22826C37.705 6.09156 36.778 8.42413 37.6382 10.4326C38.3211 12.0255 39.9261 12.9455 41.5657 12.8259L54.2583 42.4544C52.8467 43.3037 51.6694 44.5032 50.8465 45.934L7.9165 28.7569C7.97224 27.1336 7.02484 25.5772 5.4338 24.9347C3.40518 24.124 1.09611 25.113 0.284275 27.1416C-0.528531 29.1702 0.461598 31.4804 2.49021 32.2911C4.09932 32.9355 5.8807 32.4451 6.96288 31.201L49.8604 48.368C49.4601 49.9751 49.4813 51.647 49.9173 53.2359L10.325 70.6463C9.21544 69.4586 7.44338 69.0251 5.8636 69.7022C3.83188 70.5734 2.89361 72.8998 3.75788 74.9166C4.62138 76.9308 6.95278 77.857 8.96023 76.9978C10.5552 76.3147 11.4742 74.7099 11.3548 73.0701L50.9228 55.67C51.7882 57.121 53 58.2842 54.4034 59.0829L44.5208 83.8295C42.9004 83.7725 41.3441 84.7211 40.7007 86.3118C39.889 88.3404 40.878 90.6508 42.9066 91.4617C44.9362 92.2743 47.2455 91.2853 48.0581 89.2565C48.7015 87.6455 48.2111 85.8641 46.9677 84.7817L56.8412 60.0576C58.422 60.461 60.1132 60.4589 61.7557 59.999L65.7137 69.2362C64.4956 70.3406 64.0537 72.1363 64.737 73.731C65.6001 75.7474 67.9329 76.6735 69.9392 75.8123C71.9555 74.9509 72.8816 72.6186 72.0224 70.6101C71.3455 69.0313 69.7628 68.1216 68.1415 68.2166L64.1755 58.9634C65.6246 58.0898 66.7755 56.8719 67.5679 55.4614L112.08 70.0366C112.003 71.6762 112.951 73.261 114.564 73.9115C116.595 74.7243 118.905 73.7351 119.716 71.7046C120.529 69.6759 119.537 67.3677 117.511 66.5548C115.91 65.9164 114.151 66.3888 113.077 67.6089L68.5447 53.0256C68.9337 51.457 68.9298 49.779 68.4755 48.1516L112.136 29.1079C113.241 30.3258 115.037 30.7677 116.631 30.0848C118.646 29.2215 119.574 26.8909 118.713 24.8824C117.849 22.8657 115.517 21.9394 113.51 22.7987ZM76.1849 4.39331C76.4787 3.65567 77.3119 3.29889 78.0494 3.59274C78.7851 3.88854 79.1438 4.72154 78.8478 5.45919C78.552 6.19489 77.7192 6.55342 76.9814 6.25762C76.2457 5.96202 75.8889 5.12901 76.1849 4.39331ZM5.27493 29.1459C4.9801 29.8816 4.1471 30.2384 3.41042 29.9446C2.67278 29.6488 2.316 28.8156 2.61082 28.0801C2.90565 27.3424 3.73982 26.9858 4.4763 27.2795C5.21316 27.5755 5.56975 28.4083 5.27493 29.1459ZM7.96525 74.673C7.2346 74.9851 6.39557 74.6487 6.08365 73.919C5.76941 73.1896 6.10579 72.3505 6.83548 72.0384C7.56496 71.7242 8.40515 72.0608 8.71823 72.7902C9.03112 73.5199 8.69376 74.3611 7.96525 74.673ZM45.7113 88.3159C45.4163 89.0536 44.5825 89.4103 43.8468 89.1144C43.1092 88.8205 42.7524 87.9875 43.0472 87.2498C43.3411 86.5143 44.175 86.1578 44.9117 86.4516C45.6484 86.7453 46.0061 87.5804 45.7113 88.3159ZM39.9436 9.43349C39.6305 8.704 39.9669 7.86498 40.6966 7.55287C41.427 7.23862 42.2661 7.5752 42.5782 8.30663C42.8913 9.03612 42.5558 9.87514 41.8254 10.1874C41.0957 10.4994 40.2567 10.1651 39.9436 9.43349ZM69.6999 71.6148C70.012 72.3445 69.6754 73.1835 68.9459 73.4956C68.2162 73.8076 67.3774 73.4735 67.0651 72.7419C66.7532 72.012 67.0894 71.1734 67.8191 70.8611C68.5486 70.549 69.3878 70.8855 69.6999 71.6148ZM114.706 69.6998C115 68.9624 115.833 68.6075 116.571 68.9016C117.308 69.1954 117.665 70.0304 117.369 70.7661C117.075 71.5016 116.242 71.8605 115.505 71.5645C114.767 71.2705 114.41 70.4377 114.706 69.6998ZM115.634 27.7598C114.905 28.0719 114.066 27.7355 113.753 27.006C113.441 26.2764 113.778 25.4373 114.507 25.1254C115.237 24.8114 116.076 25.1477 116.388 25.8772C116.7 26.6067 116.358 27.4498 115.634 27.7598Z" fill="#E6E7E8"/>
<path fill-rule="evenodd" clip-rule="evenodd" d="M101.019 46.7692C99.3003 46.7692 97.8412 47.8677 97.2878 49.3937H68.7316C68.5005 47.7197 67.8359 46.1837 66.8508 44.8968L92.3327 19.4166C93.8084 20.1321 95.6381 19.8827 96.8722 18.6566C98.4168 17.1102 98.4168 14.5994 96.8722 13.0532C95.3282 11.5068 92.8152 11.5068 91.2709 13.0532C90.051 14.2711 89.8036 16.0749 90.4927 17.542L64.9945 43.0402C63.7179 42.0736 62.1977 41.4251 60.54 41.192V8.941C62.0682 8.38981 63.1643 6.93064 63.1643 5.21219C63.1643 3.01946 61.3863 1.25012 59.2025 1.25012C57.0097 1.25012 55.2396 3.02742 55.2396 5.21219C55.2396 6.94695 56.3533 8.42418 57.9076 8.95945V41.192C56.2752 41.4169 54.7209 42.0575 53.4004 43.0484L20.7034 10.3536C21.3935 8.88429 21.1352 7.08058 19.9263 5.86263C18.3811 4.31839 15.8691 4.31839 14.3227 5.86263C12.7785 7.40881 12.7785 9.92181 14.3227 11.4662C15.5488 12.6923 17.3797 12.9415 18.8643 12.2262L51.5359 44.8968C50.5349 46.2182 49.8953 47.7623 49.6704 49.3937H29.6682C29.1158 47.8677 27.6566 46.7692 25.9392 46.7692C23.7282 46.7692 21.9499 48.5405 21.9499 50.7332C21.9499 52.926 23.7284 54.6953 25.9129 54.6953C27.6477 54.6953 29.1242 53.5826 29.6602 52.0283H49.6372C49.8611 53.7023 50.5168 55.2484 51.4926 56.5353L23.5256 84.5001C22.0573 83.8111 20.2538 84.0703 19.0356 85.2784C17.4904 86.8224 17.4904 89.3356 19.0356 90.8818C20.5809 92.426 23.0939 92.426 24.6393 90.8818C25.8654 89.6557 26.1157 87.8258 25.3992 86.3402L53.3487 58.3895C54.6438 59.3826 56.1981 60.0472 57.8903 60.2723V78.7911C56.336 79.3262 55.2223 80.8016 55.2223 82.536C55.2223 84.7311 57.0006 86.5002 59.1842 86.5002C61.3779 86.5002 63.1461 84.7208 63.1461 82.536C63.1461 80.8195 62.0519 79.3605 60.5228 78.8074V60.2723C62.1977 60.0392 63.7336 59.3744 65.0207 58.3895L80.2746 73.6456C79.5574 75.1211 79.8085 76.9528 81.0348 78.1871C82.5808 79.7315 85.094 79.7315 86.6382 78.1871C88.1825 76.6409 88.1825 74.1281 86.6382 72.5837C85.4203 71.3676 83.6164 71.1082 82.1475 71.8076L66.8772 56.5351C67.8518 55.2482 68.5085 53.7021 68.7316 52.0281H97.2698C97.8048 53.5824 99.2823 54.6951 101.019 54.6951C103.212 54.6951 104.979 52.9178 104.979 50.733C104.979 48.5405 103.202 46.7692 101.019 46.7692ZM93.0482 14.8404C93.6099 14.2791 94.5175 14.2791 95.0768 14.8404C95.6381 15.4019 95.6381 16.3077 95.0768 16.869C94.5175 17.4303 93.6097 17.4303 93.0482 16.869C92.4869 16.3077 92.4869 15.4019 93.0482 14.8404ZM18.1217 9.67068C17.5604 10.2322 16.6545 10.2322 16.093 9.67068C15.5317 9.10939 15.5317 8.20336 16.093 7.64206C16.6545 7.08077 17.5604 7.08077 18.1217 7.64206C18.6829 8.20336 18.6829 9.10939 18.1217 9.67068ZM25.9129 52.166C25.1186 52.166 24.4802 51.5276 24.4802 50.7332C24.4802 49.9389 25.1186 49.3005 25.9129 49.3005C26.7063 49.3005 27.3467 49.9391 27.3467 50.7332C27.3467 51.5276 26.7063 52.166 25.9129 52.166ZM22.8517 89.0944C22.2902 89.6557 21.3843 89.6557 20.823 89.0944C20.2616 88.5329 20.2616 87.6269 20.823 87.0658C21.3843 86.5043 22.2902 86.5043 22.8517 87.0658C23.4131 87.6271 23.4131 88.5331 22.8517 89.0944ZM57.7515 5.20403C57.7515 4.40968 58.391 3.77128 59.1842 3.77128C59.9786 3.77128 60.6179 4.40968 60.6179 5.20403C60.6179 5.99839 59.9786 6.63679 59.1842 6.63679C58.3908 6.63698 57.7515 5.99839 57.7515 5.20403ZM60.6181 82.5463C60.6181 83.3409 59.9788 83.9791 59.1844 83.9791C58.391 83.9791 57.7516 83.3409 57.7516 82.5463C57.7516 81.752 58.3912 81.1136 59.1844 81.1136C59.9788 81.1136 60.6181 81.752 60.6181 82.5463ZM82.8222 74.3712C83.3837 73.8098 84.2915 73.8098 84.8508 74.3712C85.4123 74.9325 85.4123 75.8386 84.8508 76.3997C84.2915 76.9612 83.3835 76.9612 82.8222 76.3997C82.2609 75.8384 82.2609 74.9323 82.8222 74.3712ZM101.019 52.166C100.224 52.166 99.5841 51.5276 99.5841 50.7332C99.5841 49.9389 100.224 49.3005 101.019 49.3005C101.811 49.3005 102.45 49.9391 102.45 50.7332C102.45 51.5276 101.803 52.166 101.019 52.166Z" fill="#458FF6"/>
<path fill-rule="evenodd" clip-rule="evenodd" d="M59.1462 46.9252C59.6782 45.6018 60.8911 45.0465 62.3006 45.0181C64.8036 44.9674 66.1533 47.3447 65.6264 49.6914C64.988 52.5165 61.2104 55.9496 59.1412 57.9193C57.1106 56.0325 53.3715 52.715 52.7444 49.9507C52.2175 47.6203 53.5399 45.1943 56.0741 45.1438C57.4835 45.1154 58.6162 45.6222 59.1462 46.9252Z" fill="white"/>
</svg>
