<svg width="301" height="226" viewBox="0 0 301 226" fill="none" xmlns="http://www.w3.org/2000/svg">
<path d="M35.9589 63.8206C35.9589 63.8206 9.72885 71.4559 2.39325 101.809C-4.94234 132.161 18.1121 152.653 42.2147 176.775C66.3173 200.897 78.4559 220.517 78.4559 220.517H216.428C216.428 220.517 271.363 205.505 284.113 163.895C296.862 122.285 266.775 115.475 258.915 103.276C251.056 91.0775 250.753 64.8736 247.609 35.5095C244.465 6.14542 202.548 -13.6063 175.302 14.4412C148.056 42.4887 131.289 69.0874 102.995 67.2443C74.7006 65.4007 65.3328 57.1049 35.9589 63.8206Z" fill="#6CBCFC"/>
<path d="M53.6018 220.555C53.6018 220.555 29.1969 199.761 24.5166 164.222C19.8362 128.683 59.9539 107.889 67.3084 93.9004C74.6633 79.9116 75.3317 37.9457 111.104 28.8721C146.875 19.7986 162.254 55.3374 171.949 66.6792C181.644 78.021 208.389 73.1063 230.454 72.3504C252.518 71.5945 287.287 98.0593 273.245 156.66C259.205 215.262 248.507 220.555 248.507 220.555H53.6018V220.555Z" fill="#F4F3FE"/>
<path d="M74.3809 220.805C74.3809 220.805 21.8935 171.781 54.3223 104.862" stroke="#458FF6" stroke-miterlimit="10" stroke-linecap="round" stroke-linejoin="round"/>
<path d="M52.3676 188.325C52.3676 188.325 47.4841 181.442 43.7459 184.511C38.8327 188.544 47.1813 195.038 52.3676 188.325Z" fill="#458FF6"/>
<path d="M52.2555 187.474C52.2555 187.474 50.2479 178.947 54.6493 177.36C60.4328 175.276 60.1097 186.729 52.2555 187.474Z" fill="#458FF6"/>
<path d="M48.368 178.318C48.368 178.318 46.3605 169.79 50.7619 168.204C56.5458 166.119 56.2227 177.572 48.368 178.318Z" fill="#458FF6"/>
<path d="M45.4544 165.543C45.4544 165.543 43.4469 157.015 47.8483 155.429C53.6323 153.345 53.3092 164.797 45.4544 165.543Z" fill="#458FF6"/>
<path d="M43.7473 152.885C43.7473 152.885 43.5242 144.064 48.1299 143.663C54.1823 143.135 51.5436 154.199 43.7473 152.885Z" fill="#458FF6"/>
<path d="M44.5528 138.566C44.5528 138.566 44.3297 129.745 48.9353 129.344C54.9877 128.816 52.349 139.879 44.5528 138.566Z" fill="#458FF6"/>
<path d="M47.9614 119.777C47.9614 119.777 50.2336 111.335 54.7129 112.613C60.5987 114.293 54.9822 123.83 47.9614 119.777Z" fill="#458FF6"/>
<path d="M48.4066 178.825C48.4066 178.825 45.9146 170.462 41.4712 171.89C35.6316 173.765 41.4948 183.11 48.4066 178.825Z" fill="#458FF6"/>
<path d="M45.4415 165.827C45.4415 165.827 42.9495 157.464 38.5061 158.892C32.6665 160.766 38.5297 170.112 45.4415 165.827Z" fill="#458FF6"/>
<path d="M43.7453 152.724C43.7453 152.724 43.618 143.901 39.001 143.734C32.9335 143.515 36.0095 154.433 43.7453 152.724Z" fill="#458FF6"/>
<path d="M44.4134 138.407C44.4134 138.407 44.286 129.584 39.6691 129.416C33.6016 129.197 36.6771 140.115 44.4134 138.407Z" fill="#458FF6"/>
<path d="M48.3894 119.746C48.3894 119.746 48.262 110.923 43.645 110.756C37.5775 110.536 40.6535 121.454 48.3894 119.746Z" fill="#458FF6"/>
<path d="M53.8334 105.504C53.8334 105.504 61.0263 102.083 59.4433 97.1757C57.3636 90.7259 49.5499 98.0212 53.8334 105.504Z" fill="#458FF6"/>
<path d="M253.975 93.5231C253.975 93.5231 247.957 107.134 251.969 126.037C255.981 144.941 269.353 166.491 233.582 220.556" stroke="#458FF6" stroke-miterlimit="10" stroke-linecap="round" stroke-linejoin="round"/>
<path d="M255.432 175.247C255.432 175.247 256.531 166.51 251.995 165.526C246.033 164.231 247.555 175.56 255.432 175.247Z" fill="#458FF6"/>
<path d="M257.251 160.627C257.251 160.627 258.35 151.89 253.813 150.905C247.852 149.611 249.374 160.94 257.251 160.627Z" fill="#458FF6"/>
<path d="M256.778 145.589C256.778 145.589 254.07 137.313 249.665 138.888C243.877 140.956 249.982 150.102 256.778 145.589Z" fill="#458FF6"/>
<path d="M254.064 134.717C254.064 134.717 253.11 125.959 248.503 126.347C242.449 126.856 246.532 137.343 254.064 134.717Z" fill="#458FF6"/>
<path d="M250.943 118.833C250.943 118.833 248.605 110.414 244.137 111.736C238.264 113.473 243.953 122.954 250.943 118.833Z" fill="#458FF6"/>
<path d="M251.208 104.716C251.208 104.716 251.431 95.8954 246.825 95.4942C240.773 94.9677 243.413 106.03 251.208 104.716Z" fill="#458FF6"/>
<path d="M253.037 95.4765C253.037 95.4765 259.47 90.4824 257.043 86.0378C253.853 80.1966 247.505 89.1269 253.037 95.4765Z" fill="#458FF6"/>
<path d="M255.361 175.269C255.361 175.269 259.488 167.78 263.522 170.325C268.822 173.671 261.214 181.239 255.361 175.269Z" fill="#458FF6"/>
<path d="M257.368 159.486C257.368 159.486 261.496 151.997 265.53 154.542C270.831 157.888 263.222 165.455 257.368 159.486Z" fill="#458FF6"/>
<path d="M256.579 145.517C256.579 145.517 257.772 136.797 262.366 137.346C268.403 138.066 264.036 148.406 256.579 145.517Z" fill="#458FF6"/>
<path d="M254.064 134.581C254.064 134.581 255.258 125.861 259.852 126.41C265.889 127.13 261.522 137.47 254.064 134.581Z" fill="#458FF6"/>
<path d="M250.919 118.628C250.919 118.628 252.113 109.907 256.707 110.456C262.743 111.177 258.376 121.517 250.919 118.628Z" fill="#458FF6"/>
<path d="M251.211 104.444C251.211 104.444 252.404 95.7228 256.998 96.2718C263.035 96.9924 258.668 107.332 251.211 104.444Z" fill="#458FF6"/>
<path d="M80.7779 206.597C80.7779 206.597 68.762 177.892 59.6494 162.994C50.5369 148.096 45.5127 127.491 59.6197 125.452C73.7272 123.414 86.0563 169.362 80.7779 206.597Z" fill="#93C1F9"/>
<path d="M59.6193 125.452C58.3679 125.633 57.2697 125.963 56.3088 126.419L63.9298 140.646C63.9298 140.646 79.2482 173.997 80.7775 206.597C86.0559 169.361 73.7268 123.414 59.6193 125.452Z" fill="#458DFC"/>
<path d="M63.9299 140.646C63.9299 140.646 79.2483 173.997 80.7776 206.597" stroke="#341F78" stroke-miterlimit="10"/>
<path d="M61.1384 220.556C61.1384 220.556 40.8397 221.536 28.487 202.031C16.1343 182.525 25.8124 150.803 25.8124 150.803C25.8124 150.803 26.1469 168.395 44.8686 175.95C63.5899 183.505 68.0471 207.702 61.1384 220.556Z" fill="#62B1CC"/>
<path d="M61.1385 220.556C60.3583 210.726 54.5638 210.726 43.2087 199.384C31.8541 188.041 29.8244 171.034 29.8244 171.034C29.8244 171.034 25.3105 160.067 25.8124 150.803C25.8124 150.803 16.1348 182.524 28.4871 202.03C40.8393 221.536 61.1385 220.556 61.1385 220.556Z" fill="#77C6E9"/>
<path d="M29.8252 171.035C29.8252 171.035 31.8545 188.042 43.2095 199.384C54.5646 210.726 60.3591 210.726 61.1393 220.556" stroke="#508BA3" stroke-miterlimit="10" stroke-linecap="round" stroke-linejoin="round"/>
<path d="M220.744 203.313C220.744 203.313 232.76 174.608 241.873 159.71C250.985 144.812 256.009 124.207 241.902 122.169C227.795 120.13 215.466 166.078 220.744 203.313Z" fill="#97C3F9"/>
<path d="M241.902 122.17C243.154 122.35 244.252 122.68 245.213 123.136L237.592 137.363C237.592 137.363 222.273 170.714 220.744 203.314C215.466 166.078 227.795 120.131 241.902 122.17Z" fill="#458DFC"/>
<path d="M237.592 137.363C237.592 137.363 222.273 170.714 220.744 203.314" stroke="#341F78" stroke-miterlimit="10"/>
<path d="M221.064 220.556C221.064 220.556 241.362 221.536 253.715 202.031C266.068 182.525 256.39 150.803 256.39 150.803C256.39 150.803 256.055 168.395 237.333 175.95C218.612 183.505 214.154 207.702 221.064 220.556Z" fill="#62B1CC"/>
<path d="M221.064 220.556C221.844 210.726 227.639 210.726 238.994 199.383C250.349 188.041 252.378 171.034 252.378 171.034C252.378 171.034 256.892 160.067 256.39 150.803C256.39 150.803 266.068 182.524 253.715 202.03C241.363 221.536 221.064 220.556 221.064 220.556Z" fill="#77C6E9"/>
<path d="M252.377 171.035C252.377 171.035 250.348 188.042 238.993 199.384C227.638 210.726 221.843 210.726 221.063 220.556" stroke="#508BA3" stroke-miterlimit="10" stroke-linecap="round" stroke-linejoin="round"/>
<path d="M254.613 225.091H46.0131C44.9947 225.091 44.1687 224.158 44.1687 223.006V222.64C44.1687 221.488 44.9942 220.554 46.0131 220.554H254.613C255.632 220.554 256.458 221.488 256.458 222.64V223.006C256.457 224.158 255.632 225.091 254.613 225.091Z" fill="#D7CCFF"/>
<path d="M126.638 220.555H56.5936L51.1944 170.686C50.8987 167.954 52.7836 165.545 55.2172 165.545H126.639V220.555H126.638Z" fill="#4575BB"/>
<path d="M91.6156 144.423C96.1746 144.423 99.8705 140.243 99.8705 135.087C99.8705 129.932 96.1746 125.752 91.6156 125.752C87.0565 125.752 83.3606 129.932 83.3606 135.087C83.3606 140.243 87.0565 144.423 91.6156 144.423Z" fill="#4089ED"/>
<path d="M96.7416 140.069C92.1825 140.069 88.4867 135.89 88.4867 130.734C88.4867 129.02 88.9023 127.419 89.615 126.039C86.0243 127.052 83.3606 130.712 83.3606 135.086C83.3606 140.242 87.0565 144.422 91.6156 144.422C94.659 144.422 97.311 142.554 98.7422 139.782C98.1006 139.963 97.4327 140.069 96.7416 140.069Z" fill="#8078EF"/>
<path d="M74.8961 118.093C77.9711 118.093 80.464 115.273 80.464 111.796C80.464 108.318 77.9711 105.499 74.8961 105.499C71.821 105.499 69.3281 108.318 69.3281 111.796C69.3281 115.273 71.821 118.093 74.8961 118.093Z" fill="#4089ED"/>
<path d="M78.3536 115.156C75.2786 115.156 72.7857 112.337 72.7857 108.86C72.7857 107.704 73.0659 106.624 73.5465 105.693C71.1248 106.376 69.3281 108.845 69.3281 111.795C69.3281 115.273 71.8211 118.092 74.8961 118.092C76.9489 118.092 78.7376 116.832 79.7031 114.962C79.2701 115.084 78.8196 115.156 78.3536 115.156Z" fill="#8078EF"/>
<path d="M94.5936 111.594C94.5936 113.454 93.2606 114.962 91.6158 114.962C89.971 114.962 88.6379 113.454 88.6379 111.594C88.6379 109.734 89.9714 108.227 91.6158 108.227C93.2601 108.227 94.5936 109.734 94.5936 111.594Z" fill="#4089ED"/>
<path d="M93.4648 113.393C91.82 113.393 90.487 111.885 90.487 110.025C90.487 109.407 90.637 108.829 90.8941 108.331C89.5988 108.697 88.6379 110.018 88.6379 111.596C88.6379 113.456 89.9714 114.963 91.6158 114.963C92.7139 114.963 93.6705 114.289 94.1865 113.289C93.9549 113.354 93.7144 113.393 93.4648 113.393Z" fill="#8078EF"/>
<path d="M214.748 143.722C219.248 142.901 222.308 138.109 221.582 133.019C220.856 127.929 216.618 124.469 212.118 125.29C207.617 126.111 204.557 130.903 205.283 135.993C206.01 141.083 210.247 144.543 214.748 143.722Z" fill="#4089ED"/>
<path d="M208.315 139.489C212.874 139.489 216.57 135.31 216.57 130.154C216.57 128.44 216.154 126.839 215.442 125.458C219.032 126.471 221.696 130.132 221.696 134.506C221.696 139.662 218 143.842 213.441 143.842C210.398 143.842 207.746 141.974 206.314 139.202C206.956 139.383 207.624 139.489 208.315 139.489Z" fill="#8078EF"/>
<path d="M230.161 117.511C233.236 117.511 235.729 114.692 235.729 111.215C235.729 107.737 233.236 104.918 230.161 104.918C227.086 104.918 224.593 107.737 224.593 111.215C224.593 114.692 227.086 117.511 230.161 117.511Z" fill="#4089ED"/>
<path d="M226.704 114.576C229.779 114.576 232.272 111.757 232.272 108.279C232.272 107.123 231.992 106.044 231.511 105.112C233.933 105.796 235.729 108.264 235.729 111.215C235.729 114.692 233.236 117.512 230.161 117.512C228.108 117.512 226.32 116.252 225.354 114.382C225.787 114.504 226.237 114.576 226.704 114.576Z" fill="#8078EF"/>
<path d="M210.463 111.013C210.463 112.873 211.797 114.381 213.441 114.381C215.086 114.381 216.419 112.873 216.419 111.013C216.419 109.153 215.086 107.646 213.441 107.646C211.797 107.646 210.463 109.154 210.463 111.013Z" fill="#4089ED"/>
<path d="M211.592 112.812C213.237 112.812 214.57 111.305 214.57 109.444C214.57 108.826 214.42 108.248 214.163 107.751C215.458 108.116 216.419 109.437 216.419 111.015C216.419 112.875 215.086 114.382 213.441 114.382C212.343 114.382 211.386 113.709 210.87 112.709C211.102 112.774 211.343 112.812 211.592 112.812Z" fill="#8078EF"/>
<path d="M239.523 166.862L186.284 153.284L174.878 210.476L228.118 224.055L239.523 166.862Z" fill="#1E1551"/>
<path d="M237.966 167.96L187.047 154.974L179.203 194.303L230.123 207.29L237.966 167.96Z" fill="white"/>
<path d="M179.212 194.297L230.132 207.282L187.054 154.967L179.212 194.297Z" fill="#F7F9F9"/>
<path d="M224.207 196.881L202.126 191.251C202.126 191.251 211.265 173.774 217.073 174.475C222.88 175.176 224.207 196.881 224.207 196.881Z" fill="#ACA2DD"/>
<path d="M212.625 184.765C213.598 180.131 215.862 176.287 217.07 174.475C211.263 173.779 202.126 191.251 202.126 191.251L214.44 194.391C213.171 192.044 211.842 188.491 212.625 184.765Z" fill="#8D85C1"/>
<path d="M186.739 187.328L214.364 194.373C214.364 194.373 209.705 178.212 205.743 173.927C201.781 169.641 195.136 176.68 186.739 187.328Z" fill="#D7CCFF"/>
<path d="M213.64 170.676C213.268 172.541 211.63 173.711 209.981 173.291C208.332 172.871 207.297 171.018 207.669 169.153C208.041 167.288 209.679 166.118 211.328 166.538C212.977 166.959 214.012 168.812 213.64 170.676Z" fill="#D7CCFF"/>
<path d="M196.582 184.301C196.96 178.708 199.436 175.04 201.294 172.983C197.477 174.371 192.524 179.992 186.739 187.327L197.34 190.031C196.761 188.533 196.423 186.653 196.582 184.301Z" fill="#ACA2DD"/>
<path d="M210.187 132.927L145.057 117.978L132.5 187.945L197.631 202.894L210.187 132.927Z" fill="#291A68"/>
<path d="M208.316 134.308L146.024 120.01L137.389 168.124L199.681 182.422L208.316 134.308Z" fill="white"/>
<path d="M137.388 168.132L199.682 182.431L146.024 120.017L137.388 168.132Z" fill="#F7F9F9"/>
<path d="M192.228 169.943L165.216 163.743C165.216 163.743 175.937 142.195 183.023 142.877C190.11 143.559 192.228 169.943 192.228 169.943Z" fill="#ACA2DD"/>
<path d="M177.847 155.536C178.925 149.864 181.591 145.118 183.021 142.877C175.934 142.201 165.216 163.743 165.216 163.743L180.28 167.201C178.68 164.381 176.98 160.096 177.847 155.536Z" fill="#8D85C1"/>
<path d="M146.391 159.422L180.187 167.18C180.187 167.18 174.14 147.644 169.217 142.544C164.294 137.444 156.368 146.211 146.391 159.422Z" fill="#D7CCFF"/>
<path d="M178.757 138.353C178.348 140.634 176.381 142.108 174.363 141.645C172.346 141.182 171.043 138.957 171.452 136.676C171.862 134.395 173.829 132.921 175.846 133.384C177.863 133.847 179.167 136.072 178.757 138.353Z" fill="#D7CCFF"/>
<path d="M158.304 155.446C158.635 148.626 161.564 144.087 163.778 141.528C159.163 143.331 153.263 150.321 146.39 159.423L159.358 162.399C158.62 160.592 158.165 158.315 158.304 155.446Z" fill="#ACA2DD"/>
<path d="M161.342 120.334L86.4727 138.042L101.346 218.47L176.215 200.763L161.342 120.334Z" fill="#341F78"/>
<path d="M159.922 122.754L88.3147 139.689L98.5428 194.998L170.15 178.062L159.922 122.754Z" fill="white"/>
<path d="M98.5402 195.01L170.15 178.078L88.3145 139.7L98.5402 195.01Z" fill="#F7F9F9"/>
<path d="M157.245 168.713L126.193 176.055C126.193 176.055 128.859 147.759 136.625 144.833C144.392 141.908 157.245 168.713 157.245 168.713Z" fill="#ACA2DD"/>
<path d="M136.246 160.881C135.104 154.33 136.013 147.94 136.623 144.835C128.859 147.767 126.194 176.057 126.194 176.057L143.512 171.962C140.685 169.803 137.164 166.147 136.246 160.881Z" fill="#8D85C1"/>
<path d="M104.553 181.172L143.403 171.986C143.403 171.986 129.152 154.442 121.895 151.584C114.639 148.724 109.787 162.071 104.553 181.172Z" fill="#D7CCFF"/>
<path d="M130.296 142.244C130.781 144.867 129.294 147.437 126.975 147.985C124.656 148.534 122.383 146.852 121.899 144.23C121.414 141.608 122.9 139.037 125.219 138.489C127.538 137.941 129.811 139.622 130.296 142.244Z" fill="#D7CCFF"/>
<path d="M115.549 170.838C113.154 163.458 114.425 157.152 115.737 153.307C111.583 157.587 108.159 168.013 104.553 181.171L119.461 177.646C117.953 176.117 116.556 173.943 115.549 170.838Z" fill="#ACA2DD"/>
<path d="M150.349 65.7759L131.516 87.2H139.762V101.819H160.935V87.2H169.182L150.349 65.7759Z" fill="#458FF6"/>
<path d="M161.158 103.679H139.679V106.136H161.158V103.679Z" fill="#458FF6"/>
<path d="M161.158 107.555H139.679V108.783H161.158V107.555Z" fill="#458FF6"/>
<path d="M151.038 101.82C142.527 93.8975 146.55 75.7829 149.104 67.1927L131.516 87.201H139.763V101.82H151.038Z" fill="#3C7FE6"/>
<path d="M157.767 79.837C156.941 80.7721 154.894 79.9741 153.197 78.0548C151.5 76.1354 150.794 73.8214 151.621 72.8862C152.448 71.9511 154.494 72.7492 156.192 74.6685C157.889 76.5878 158.594 78.9019 157.767 79.837Z" fill="#7364AF"/>
<path d="M105.028 61.8859C104.835 61.8859 104.679 61.7094 104.679 61.4917V59.0523C104.679 58.8346 104.835 58.6581 105.028 58.6581C105.22 58.6581 105.376 58.8346 105.376 59.0523V61.4917C105.376 61.7094 105.22 61.8859 105.028 61.8859Z" fill="#4089ED"/>
<path d="M106.897 62.44C106.839 62.44 106.78 62.4235 106.726 62.3894C106.558 62.2821 106.499 62.0421 106.594 61.8522L107.653 59.727C107.747 59.5376 107.96 59.4698 108.128 59.5771C108.296 59.6843 108.355 59.9243 108.261 60.1142L107.201 62.2395C107.137 62.368 107.019 62.44 106.897 62.44Z" fill="#4089ED"/>
<path d="M108.284 63.9632C108.166 63.9632 108.051 63.8954 107.986 63.7727C107.886 63.5866 107.939 63.3444 108.104 63.2318L109.95 61.9702C110.115 61.8577 110.329 61.9174 110.428 62.1036C110.528 62.2898 110.475 62.532 110.31 62.6445L108.464 63.9066C108.407 63.9445 108.345 63.9632 108.284 63.9632Z" fill="#4089ED"/>
<path d="M108.829 66.061C108.642 66.061 108.487 65.8924 108.481 65.6785C108.476 65.4609 108.627 65.2795 108.819 65.2731L110.976 65.2C111.168 65.192 111.329 65.3643 111.335 65.5825C111.34 65.8002 111.189 65.9815 110.997 65.9879L108.84 66.061C108.837 66.061 108.833 66.061 108.829 66.061Z" fill="#4089ED"/>
<path d="M110.305 69.3235C110.251 69.3235 110.195 69.3091 110.143 69.2781L108.233 68.1435C108.062 68.0422 107.997 67.8042 108.087 67.6117C108.177 67.4191 108.387 67.3444 108.557 67.4458L110.467 68.5804C110.637 68.6818 110.703 68.9197 110.614 69.1128C110.551 69.2467 110.43 69.3235 110.305 69.3235Z" fill="#4089ED"/>
<path d="M108.263 71.8509C108.148 71.8509 108.036 71.7874 107.97 71.6706L106.799 69.6217C106.695 69.4387 106.741 69.1949 106.902 69.077C107.064 68.9586 107.28 69.0114 107.384 69.1944L108.555 71.2433C108.659 71.4263 108.613 71.6701 108.452 71.788C108.393 71.8307 108.328 71.8509 108.263 71.8509Z" fill="#4089ED"/>
<path d="M105.385 72.9156C105.202 72.9156 105.049 72.7545 105.038 72.5454L104.908 70.1097C104.897 69.8926 105.043 69.7054 105.235 69.6926C105.429 69.6755 105.592 69.8452 105.604 70.0623L105.733 72.4974C105.745 72.7145 105.598 72.9018 105.406 72.9146C105.399 72.9151 105.392 72.9156 105.385 72.9156Z" fill="#4089ED"/>
<path d="M102.415 72.2488C102.364 72.2488 102.312 72.236 102.262 72.2088C102.089 72.1133 102.018 71.8776 102.102 71.6818L103.047 69.4888C103.131 69.293 103.34 69.2114 103.513 69.3074C103.687 69.4029 103.758 69.6387 103.674 69.8345L102.728 72.0274C102.668 72.1677 102.544 72.2488 102.415 72.2488Z" fill="#4089ED"/>
<path d="M100.12 70.0146C100.009 70.0146 99.8999 69.9554 99.8324 69.8439C99.723 69.6647 99.7631 69.4193 99.9216 69.2961L101.698 67.9113C101.856 67.787 102.073 67.8323 102.182 68.0121C102.292 68.1913 102.252 68.4367 102.093 68.5599L100.317 69.9447C100.257 69.9922 100.188 70.0146 100.12 70.0146Z" fill="#4089ED"/>
<path d="M99.0903 66.7934C98.912 66.7934 98.7596 66.6392 98.7436 66.4344C98.7266 66.2178 98.8676 66.0257 99.0596 66.0065L101.208 65.7873C101.404 65.7734 101.57 65.9281 101.586 66.1442C101.603 66.3607 101.462 66.5528 101.27 66.572L99.1219 66.7912C99.1115 66.7928 99.1006 66.7934 99.0903 66.7934Z" fill="#4089ED"/>
<path d="M101.561 64.4197C101.513 64.4197 101.464 64.4085 101.418 64.3845L99.4513 63.3816C99.2758 63.292 99.1975 63.0589 99.2768 62.8604C99.356 62.662 99.5626 62.574 99.7376 62.663L101.704 63.6659C101.88 63.7555 101.958 63.9886 101.879 64.1871C101.821 64.3333 101.693 64.4197 101.561 64.4197Z" fill="#4089ED"/>
<path d="M102.776 62.7208C102.669 62.7208 102.564 62.6653 102.495 62.5597L101.218 60.5934C101.104 60.4179 101.137 60.1715 101.292 60.0424C101.448 59.9138 101.666 59.9511 101.78 60.1266L103.057 62.0929C103.171 62.2684 103.138 62.5149 102.983 62.644C102.92 62.6962 102.848 62.7208 102.776 62.7208Z" fill="#4089ED"/>
<path d="M56.6838 61.2961C56.4913 61.2961 56.3352 61.1195 56.3352 60.9019V58.4624C56.3352 58.2448 56.4913 58.0682 56.6838 58.0682C56.8762 58.0682 57.0324 58.2448 57.0324 58.4624V60.9019C57.0324 61.1195 56.8762 61.2961 56.6838 61.2961Z" fill="#4089ED"/>
<path d="M58.5523 61.851C58.4943 61.851 58.4358 61.8344 58.3816 61.8003C58.2136 61.6931 58.1547 61.453 58.249 61.2631L59.3089 59.1379C59.4028 58.9485 59.6151 58.8808 59.7839 58.988C59.9519 59.0952 60.0108 59.3353 59.9165 59.5252L58.8566 61.6504C58.7924 61.7784 58.6745 61.851 58.5523 61.851Z" fill="#4089ED"/>
<path d="M59.9398 63.3739C59.8219 63.3739 59.7068 63.3061 59.6412 63.1834C59.5417 62.9973 59.594 62.7551 59.7591 62.6425L61.6054 61.3804C61.7705 61.2678 61.9846 61.3276 62.0837 61.5138C62.1832 61.6999 62.1308 61.9421 61.9657 62.0547L60.1195 63.3168C60.0634 63.3557 60.0011 63.3739 59.9398 63.3739Z" fill="#4089ED"/>
<path d="M60.4855 65.4681C60.2977 65.4681 60.143 65.2995 60.1374 65.0856C60.1317 64.8679 60.2831 64.6866 60.4751 64.6802L62.6317 64.6071C62.8242 64.5991 62.985 64.7714 62.9907 64.989C62.9963 65.2067 62.8449 65.388 62.6529 65.3944L60.4963 65.4675C60.4926 65.468 60.4892 65.4681 60.4855 65.4681Z" fill="#4089ED"/>
<path d="M61.9603 68.7336C61.9061 68.7336 61.8504 68.7192 61.7985 68.6883L59.8886 67.5537C59.7183 67.4523 59.6523 67.2144 59.7419 67.0218C59.832 66.8293 60.0419 66.7546 60.2127 66.8559L62.1226 67.9906C62.2929 68.0919 62.3589 68.3298 62.2693 68.5229C62.207 68.6574 62.0858 68.7336 61.9603 68.7336Z" fill="#4089ED"/>
<path d="M59.9186 71.2611C59.8044 71.2611 59.6922 71.1976 59.6257 71.0808L58.4549 69.0318C58.3507 68.8489 58.3969 68.6051 58.5582 68.4872C58.7205 68.3688 58.9356 68.4216 59.0403 68.6045L60.211 70.6535C60.3153 70.8365 60.2691 71.0802 60.1077 71.1981C60.0492 71.2408 59.9832 71.2611 59.9186 71.2611Z" fill="#4089ED"/>
<path d="M57.0412 72.3266C56.8582 72.3266 56.7049 72.1655 56.6936 71.9559L56.5643 69.5207C56.553 69.3036 56.6992 69.1163 56.8912 69.1035C57.0846 69.0865 57.2483 69.2561 57.2601 69.4732L57.3893 71.9089C57.4007 72.126 57.2544 72.3133 57.0624 72.3261C57.0554 72.3266 57.0483 72.3266 57.0412 72.3266Z" fill="#4089ED"/>
<path d="M54.0715 71.6574C54.0201 71.6574 53.9682 71.6446 53.9187 71.6174C53.7456 71.5219 53.6739 71.2861 53.7583 71.0903L54.7036 68.8974C54.788 68.7016 54.9961 68.62 55.1696 68.716C55.3427 68.8115 55.4144 69.0473 55.33 69.243L54.3847 71.436C54.3248 71.5758 54.2008 71.6574 54.0715 71.6574Z" fill="#4089ED"/>
<path d="M51.776 69.4248C51.6651 69.4248 51.5561 69.3656 51.4887 69.2541C51.3793 69.0748 51.4193 68.8295 51.5778 68.7062L53.3543 67.3214C53.5128 67.1971 53.7297 67.2425 53.8387 67.4222C53.9481 67.6015 53.908 67.8469 53.7495 67.9701L51.9731 69.3549C51.9132 69.4024 51.8444 69.4248 51.776 69.4248Z" fill="#4089ED"/>
<path d="M50.7465 66.2015C50.5682 66.2015 50.4159 66.0473 50.3998 65.843C50.3828 65.6264 50.5239 65.4344 50.7159 65.4152L52.8644 65.1959C53.0602 65.1821 53.2258 65.3368 53.2427 65.5533C53.2597 65.7699 53.1187 65.962 52.9267 65.9812L50.7781 66.2004C50.7677 66.2009 50.7569 66.2015 50.7465 66.2015Z" fill="#4089ED"/>
<path d="M53.2163 63.8291C53.1681 63.8291 53.1196 63.8179 53.0733 63.7939L51.1068 62.791C50.9314 62.7014 50.8531 62.4683 50.9323 62.2698C51.0115 62.0714 51.2181 61.9834 51.3931 62.0725L53.3597 63.0753C53.5351 63.165 53.6134 63.3981 53.5342 63.5965C53.4757 63.7427 53.3488 63.8291 53.2163 63.8291Z" fill="#4089ED"/>
<path d="M54.4325 62.1312C54.3254 62.1312 54.2197 62.0757 54.1513 61.9706L52.874 60.0044C52.7603 59.8289 52.7933 59.5824 52.9485 59.4533C53.1037 59.3247 53.3216 59.3621 53.4358 59.5376L54.7131 61.5039C54.8268 61.6794 54.7938 61.9258 54.6386 62.0549C54.5763 62.1061 54.5042 62.1312 54.4325 62.1312Z" fill="#4089ED"/>
<path d="M280.914 191.895C280.721 191.895 280.565 191.719 280.565 191.501V189.061C280.565 188.844 280.721 188.667 280.914 188.667C281.106 188.667 281.262 188.844 281.262 189.061V191.501C281.262 191.719 281.106 191.895 280.914 191.895Z" fill="#4089ED"/>
<path d="M282.783 192.448C282.725 192.448 282.667 192.431 282.613 192.397C282.445 192.29 282.386 192.05 282.48 191.86L283.54 189.735C283.634 189.545 283.846 189.478 284.015 189.585C284.183 189.692 284.242 189.932 284.147 190.122L283.088 192.247C283.023 192.376 282.905 192.448 282.783 192.448Z" fill="#4089ED"/>
<path d="M284.17 193.97C284.052 193.97 283.937 193.903 283.871 193.78C283.772 193.594 283.825 193.352 283.989 193.239L285.835 191.977C286.001 191.864 286.215 191.924 286.314 192.11C286.413 192.297 286.361 192.539 286.196 192.651L284.35 193.913C284.294 193.952 284.231 193.97 284.17 193.97Z" fill="#4089ED"/>
<path d="M284.715 196.067C284.528 196.067 284.373 195.899 284.367 195.685C284.362 195.467 284.513 195.286 284.706 195.28L286.862 195.207C287.055 195.199 287.215 195.371 287.221 195.588C287.227 195.806 287.075 195.987 286.883 195.994L284.727 196.067C284.722 196.067 284.719 196.067 284.715 196.067Z" fill="#4089ED"/>
<path d="M286.191 199.332C286.137 199.332 286.081 199.318 286.029 199.287L284.119 198.152C283.949 198.051 283.883 197.813 283.973 197.62C284.063 197.428 284.273 197.353 284.443 197.455L286.353 198.589C286.524 198.691 286.59 198.928 286.5 199.121C286.437 199.255 286.316 199.332 286.191 199.332Z" fill="#4089ED"/>
<path d="M284.149 201.86C284.035 201.86 283.923 201.797 283.856 201.68L282.685 199.631C282.581 199.448 282.627 199.204 282.789 199.086C282.95 198.968 283.166 199.021 283.271 199.204L284.442 201.252C284.546 201.435 284.5 201.679 284.338 201.797C284.28 201.839 284.214 201.86 284.149 201.86Z" fill="#4089ED"/>
<path d="M281.271 202.924C281.088 202.924 280.934 202.763 280.923 202.554L280.794 200.118C280.782 199.901 280.929 199.714 281.121 199.701C281.314 199.684 281.478 199.854 281.49 200.071L281.619 202.506C281.631 202.723 281.484 202.91 281.292 202.923C281.285 202.924 281.278 202.924 281.271 202.924Z" fill="#4089ED"/>
<path d="M278.301 202.255C278.25 202.255 278.198 202.242 278.149 202.215C277.976 202.12 277.904 201.884 277.988 201.688L278.934 199.495C279.018 199.299 279.226 199.218 279.4 199.314C279.573 199.409 279.644 199.645 279.56 199.841L278.615 202.034C278.554 202.174 278.43 202.255 278.301 202.255Z" fill="#4089ED"/>
<path d="M276.006 200.024C275.895 200.024 275.786 199.964 275.719 199.854C275.609 199.674 275.65 199.429 275.808 199.306L277.584 197.921C277.743 197.797 277.96 197.842 278.069 198.022C278.178 198.201 278.138 198.446 277.98 198.57L276.203 199.955C276.143 200.002 276.075 200.024 276.006 200.024Z" fill="#4089ED"/>
<path d="M274.977 196.802C274.799 196.802 274.647 196.648 274.631 196.444C274.614 196.227 274.755 196.035 274.946 196.016L277.095 195.797C277.29 195.783 277.456 195.938 277.473 196.154C277.49 196.371 277.349 196.563 277.157 196.582L275.008 196.801C274.998 196.802 274.988 196.802 274.977 196.802Z" fill="#4089ED"/>
<path d="M277.446 194.427C277.398 194.427 277.35 194.415 277.303 194.391L275.337 193.388C275.161 193.299 275.083 193.066 275.162 192.867C275.242 192.669 275.448 192.581 275.623 192.67L277.59 193.673C277.765 193.762 277.843 193.995 277.764 194.194C277.706 194.34 277.579 194.427 277.446 194.427Z" fill="#4089ED"/>
<path d="M278.662 192.73C278.555 192.73 278.449 192.674 278.381 192.568L277.103 190.602C276.99 190.427 277.023 190.18 277.178 190.051C277.333 189.923 277.551 189.96 277.665 190.135L278.942 192.102C279.056 192.277 279.023 192.524 278.868 192.653C278.806 192.704 278.733 192.73 278.662 192.73Z" fill="#4089ED"/>
<path d="M187.155 111.062C186.963 111.062 186.806 110.886 186.806 110.668V108.229C186.806 108.011 186.963 107.834 187.155 107.834C187.347 107.834 187.504 108.011 187.504 108.229V110.668C187.503 110.886 187.347 111.062 187.155 111.062Z" fill="#4089ED"/>
<path d="M189.024 111.616C188.966 111.616 188.908 111.6 188.853 111.566C188.685 111.458 188.626 111.218 188.721 111.028L189.781 108.903C189.874 108.714 190.087 108.646 190.256 108.753C190.424 108.86 190.483 109.101 190.388 109.29L189.328 111.416C189.264 111.544 189.146 111.616 189.024 111.616Z" fill="#4089ED"/>
<path d="M190.41 113.138C190.292 113.138 190.177 113.07 190.112 112.947C190.012 112.761 190.064 112.519 190.23 112.406L192.076 111.144C192.241 111.032 192.455 111.091 192.555 111.277C192.654 111.464 192.602 111.706 192.437 111.819L190.59 113.081C190.534 113.119 190.472 113.138 190.41 113.138Z" fill="#4089ED"/>
<path d="M190.957 115.235C190.769 115.235 190.614 115.067 190.609 114.853C190.603 114.635 190.754 114.454 190.946 114.447L193.103 114.374C193.295 114.366 193.456 114.539 193.462 114.757C193.468 114.974 193.316 115.156 193.124 115.162L190.968 115.235C190.964 115.235 190.96 115.235 190.957 115.235Z" fill="#4089ED"/>
<path d="M192.432 118.5C192.377 118.5 192.322 118.486 192.27 118.455L190.36 117.32C190.189 117.219 190.124 116.981 190.213 116.788C190.303 116.596 190.513 116.521 190.684 116.622L192.594 117.757C192.765 117.858 192.83 118.096 192.741 118.289C192.678 118.423 192.557 118.5 192.432 118.5Z" fill="#4089ED"/>
<path d="M190.39 121.025C190.276 121.025 190.164 120.962 190.097 120.845L188.927 118.796C188.822 118.613 188.869 118.369 189.03 118.251C189.192 118.133 189.407 118.186 189.512 118.369L190.683 120.418C190.787 120.601 190.741 120.844 190.579 120.962C190.52 121.005 190.455 121.025 190.39 121.025Z" fill="#4089ED"/>
<path d="M187.512 122.093C187.329 122.093 187.176 121.932 187.165 121.723L187.036 119.288C187.024 119.07 187.17 118.883 187.362 118.87C187.556 118.853 187.72 119.023 187.731 119.24L187.861 121.675C187.872 121.892 187.726 122.08 187.534 122.092C187.527 122.093 187.52 122.093 187.512 122.093Z" fill="#4089ED"/>
<path d="M184.542 121.424C184.491 121.424 184.439 121.411 184.39 121.384C184.217 121.288 184.145 121.052 184.229 120.856L185.175 118.663C185.259 118.468 185.467 118.386 185.641 118.482C185.813 118.578 185.885 118.813 185.801 119.009L184.856 121.202C184.795 121.342 184.671 121.424 184.542 121.424Z" fill="#4089ED"/>
<path d="M182.248 119.19C182.137 119.19 182.028 119.131 181.961 119.019C181.851 118.84 181.891 118.594 182.05 118.471L183.826 117.086C183.985 116.962 184.201 117.007 184.311 117.187C184.42 117.366 184.38 117.612 184.221 117.735L182.445 119.12C182.385 119.167 182.316 119.19 182.248 119.19Z" fill="#4089ED"/>
<path d="M181.218 115.969C181.039 115.969 180.887 115.814 180.871 115.61C180.854 115.393 180.995 115.201 181.187 115.182L183.336 114.963C183.531 114.949 183.697 115.103 183.714 115.319C183.731 115.536 183.59 115.728 183.398 115.747L181.249 115.966C181.238 115.968 181.228 115.969 181.218 115.969Z" fill="#4089ED"/>
<path d="M183.686 113.594C183.638 113.594 183.59 113.583 183.543 113.559L181.577 112.556C181.401 112.467 181.323 112.234 181.402 112.035C181.482 111.837 181.688 111.749 181.863 111.838L183.83 112.841C184.005 112.93 184.083 113.163 184.004 113.362C183.946 113.508 183.819 113.594 183.686 113.594Z" fill="#4089ED"/>
<path d="M184.904 111.895C184.797 111.895 184.691 111.84 184.623 111.734L183.346 109.768C183.232 109.593 183.265 109.346 183.42 109.217C183.576 109.088 183.794 109.126 183.908 109.301L185.185 111.268C185.299 111.443 185.266 111.69 185.111 111.819C185.048 111.871 184.976 111.895 184.904 111.895Z" fill="#4089ED"/>
<path d="M275.646 80.2375C275.454 80.2375 275.298 80.0609 275.298 79.8433V77.4039C275.298 77.1862 275.454 77.0096 275.646 77.0096C275.839 77.0096 275.995 77.1862 275.995 77.4039V79.8433C275.995 80.0615 275.839 80.2375 275.646 80.2375Z" fill="#4089ED"/>
<path d="M277.514 80.7934C277.456 80.7934 277.398 80.7768 277.343 80.7427C277.176 80.6355 277.117 80.3954 277.211 80.2055L278.271 78.0808C278.365 77.8915 278.577 77.8237 278.746 77.9309C278.914 78.0382 278.973 78.2782 278.878 78.4681L277.819 80.5933C277.754 80.7214 277.636 80.7934 277.514 80.7934Z" fill="#4089ED"/>
<path d="M278.902 82.3161C278.784 82.3161 278.669 82.2483 278.604 82.1256C278.504 81.9395 278.556 81.6967 278.722 81.5842L280.568 80.3226C280.733 80.21 280.947 80.2698 281.046 80.456C281.146 80.6421 281.093 80.8843 280.928 80.9969L279.082 82.2585C279.026 82.2974 278.964 82.3161 278.902 82.3161Z" fill="#4089ED"/>
<path d="M279.448 84.4108C279.26 84.4108 279.105 84.2422 279.1 84.0283C279.094 83.8107 279.246 83.6293 279.438 83.6224L281.594 83.5493C281.787 83.5413 281.947 83.7136 281.953 83.9318C281.959 84.1494 281.807 84.3308 281.615 84.3372L279.459 84.4103C279.455 84.4108 279.452 84.4108 279.448 84.4108Z" fill="#4089ED"/>
<path d="M280.923 87.6748C280.869 87.6748 280.813 87.6605 280.761 87.6295L278.852 86.4949C278.681 86.3935 278.615 86.1556 278.705 85.9625C278.795 85.7699 279.005 85.6953 279.176 85.7966L281.085 86.9312C281.256 87.0326 281.322 87.2705 281.232 87.4631C281.17 87.5986 281.049 87.6748 280.923 87.6748Z" fill="#4089ED"/>
<path d="M278.881 90.2018C278.767 90.2018 278.655 90.1383 278.588 90.0215L277.418 87.9725C277.313 87.7895 277.36 87.5458 277.521 87.4279C277.683 87.3094 277.898 87.3623 278.003 87.5452L279.174 89.5942C279.278 89.7771 279.232 90.0209 279.07 90.1388C279.011 90.1815 278.946 90.2018 278.881 90.2018Z" fill="#4089ED"/>
<path d="M276.002 91.2693C275.819 91.2693 275.666 91.1082 275.655 90.8986L275.526 88.4629C275.514 88.2458 275.66 88.0585 275.852 88.0457C276.046 88.0287 276.21 88.1983 276.221 88.4154L276.351 90.8506C276.362 91.0677 276.216 91.2549 276.024 91.2677C276.017 91.2688 276.01 91.2693 276.002 91.2693Z" fill="#4089ED"/>
<path d="M273.033 90.6004C272.982 90.6004 272.93 90.5876 272.88 90.5604C272.707 90.4649 272.636 90.2291 272.72 90.0333L273.665 87.8404C273.75 87.6446 273.958 87.563 274.131 87.659C274.304 87.7545 274.376 87.9903 274.292 88.186L273.346 90.379C273.286 90.5193 273.162 90.6004 273.033 90.6004Z" fill="#4089ED"/>
<path d="M270.739 88.3662C270.628 88.3662 270.519 88.307 270.451 88.1955C270.342 88.0163 270.382 87.7709 270.54 87.6477L272.317 86.2629C272.475 86.1386 272.692 86.1839 272.802 86.3637C272.911 86.5429 272.871 86.7883 272.713 86.9116L270.936 88.2964C270.875 88.3433 270.807 88.3662 270.739 88.3662Z" fill="#4089ED"/>
<path d="M269.709 85.1465C269.531 85.1465 269.379 84.9924 269.363 84.7875C269.346 84.5709 269.487 84.3789 269.679 84.3597L271.827 84.1405C272.023 84.1266 272.189 84.2813 272.206 84.4979C272.223 84.7144 272.082 84.9065 271.89 84.9257L269.741 85.1449C269.73 85.146 269.72 85.1465 269.709 85.1465Z" fill="#4089ED"/>
<path d="M272.179 82.772C272.131 82.772 272.082 82.7608 272.036 82.7368L270.069 81.7339C269.894 81.6443 269.816 81.4112 269.895 81.2128C269.974 81.0143 270.181 80.9263 270.356 81.0154L272.322 82.0183C272.498 82.1079 272.576 82.341 272.497 82.5394C272.438 82.6856 272.311 82.772 272.179 82.772Z" fill="#4089ED"/>
<path d="M273.394 81.0739C273.287 81.0739 273.182 81.0184 273.113 80.9128L271.836 78.9466C271.723 78.7711 271.756 78.5246 271.911 78.3955C272.066 78.2669 272.284 78.3043 272.398 78.4798L273.676 80.4461C273.789 80.6216 273.756 80.868 273.601 80.9971C273.538 81.0494 273.466 81.0739 273.394 81.0739Z" fill="#4089ED"/>
<path d="M225.343 43.0911C225.15 43.0911 224.994 42.9146 224.994 42.6969V40.2575C224.994 40.0398 225.15 39.8633 225.343 39.8633C225.535 39.8633 225.691 40.0398 225.691 40.2575V42.6969C225.691 42.9146 225.535 43.0911 225.343 43.0911Z" fill="#4089ED"/>
<path d="M227.211 43.6455C227.153 43.6455 227.095 43.629 227.04 43.5948C226.872 43.4876 226.813 43.2475 226.908 43.0576L227.968 40.9329C228.061 40.7436 228.274 40.6758 228.443 40.783C228.611 40.8903 228.67 41.1303 228.575 41.3202L227.515 43.4449C227.451 43.5735 227.333 43.6455 227.211 43.6455Z" fill="#4089ED"/>
<path d="M228.598 45.1671C228.48 45.1671 228.365 45.0994 228.299 44.9767C228.2 44.7905 228.252 44.5483 228.417 44.4353L230.263 43.1731C230.428 43.0606 230.642 43.1203 230.742 43.3065C230.841 43.4927 230.789 43.7348 230.624 43.8474L228.777 45.1095C228.721 45.149 228.659 45.1671 228.598 45.1671Z" fill="#4089ED"/>
<path d="M229.144 47.2629C228.957 47.2629 228.802 47.0943 228.796 46.8804C228.791 46.6628 228.942 46.4814 229.134 46.4745L231.291 46.4014C231.483 46.3934 231.644 46.5657 231.65 46.7833C231.655 47.001 231.504 47.1823 231.312 47.1893L229.155 47.2624C229.151 47.2629 229.148 47.2629 229.144 47.2629Z" fill="#4089ED"/>
<path d="M230.62 50.5285C230.566 50.5285 230.51 50.5141 230.458 50.4831L228.548 49.3485C228.378 49.2472 228.312 49.0093 228.401 48.8161C228.491 48.6236 228.701 48.5489 228.872 48.6502L230.782 49.7849C230.953 49.8862 231.018 50.1241 230.929 50.3167C230.866 50.4517 230.745 50.5285 230.62 50.5285Z" fill="#4089ED"/>
<path d="M228.578 53.0554C228.464 53.0554 228.351 52.9919 228.285 52.8751L227.114 50.8261C227.01 50.6432 227.056 50.3994 227.217 50.2815C227.379 50.1631 227.595 50.2159 227.699 50.3989L228.87 52.4478C228.975 52.6308 228.928 52.8746 228.767 52.9924C228.708 53.0351 228.642 53.0554 228.578 53.0554Z" fill="#4089ED"/>
<path d="M225.699 54.1217C225.516 54.1217 225.363 53.9606 225.352 53.751L225.223 51.3158C225.211 51.0987 225.357 50.9114 225.549 50.8986C225.743 50.8816 225.907 51.0512 225.918 51.2683L226.048 53.7035C226.059 53.9206 225.913 54.1078 225.721 54.1206C225.714 54.1217 225.707 54.1217 225.699 54.1217Z" fill="#4089ED"/>
<path d="M222.73 53.454C222.679 53.454 222.627 53.4412 222.577 53.414C222.404 53.3185 222.332 53.0828 222.417 52.887L223.362 50.694C223.446 50.4982 223.655 50.4166 223.828 50.5126C224.001 50.6081 224.073 50.8439 223.988 51.0397L223.043 53.2327C222.983 53.3724 222.859 53.454 222.73 53.454Z" fill="#4089ED"/>
<path d="M220.435 51.2199C220.324 51.2199 220.215 51.1601 220.148 51.0492C220.038 50.8699 220.078 50.6246 220.237 50.5013L222.013 49.1165C222.172 48.9922 222.388 49.0376 222.498 49.2173C222.607 49.3966 222.567 49.642 222.408 49.7652L220.632 51.15C220.572 51.1975 220.503 51.2199 220.435 51.2199Z" fill="#4089ED"/>
<path d="M219.405 47.9994C219.227 47.9994 219.075 47.8453 219.059 47.6404C219.042 47.4238 219.183 47.2318 219.374 47.2126L221.523 46.9934C221.718 46.9795 221.884 47.1342 221.901 47.3508C221.918 47.5673 221.777 47.7594 221.585 47.7786L219.436 47.9978C219.426 47.9989 219.416 47.9994 219.405 47.9994Z" fill="#4089ED"/>
<path d="M221.874 45.6233C221.826 45.6233 221.778 45.6121 221.732 45.5881L219.765 44.5853C219.59 44.4957 219.511 44.2625 219.591 44.0641C219.67 43.8657 219.876 43.7776 220.051 43.8667L222.018 44.8696C222.193 44.9592 222.271 45.1923 222.192 45.3908C222.134 45.5369 222.007 45.6233 221.874 45.6233Z" fill="#4089ED"/>
<path d="M223.091 43.9252C222.984 43.9252 222.878 43.8698 222.81 43.7641L221.533 41.7979C221.419 41.6224 221.452 41.3759 221.607 41.2468C221.762 41.1183 221.98 41.1556 222.094 41.3311L223.371 43.2974C223.485 43.4729 223.452 43.7193 223.297 43.8484C223.235 43.9007 223.163 43.9252 223.091 43.9252Z" fill="#4089ED"/>
<path d="M142.78 12.138C142.588 12.138 142.432 11.9614 142.432 11.7438V9.30437C142.432 9.08673 142.588 8.91016 142.78 8.91016C142.973 8.91016 143.129 9.08673 143.129 9.30437V11.7438C143.128 11.9614 142.972 12.138 142.78 12.138Z" fill="#4089ED"/>
<path d="M144.649 12.6921C144.591 12.6921 144.533 12.6756 144.479 12.6414C144.311 12.5342 144.252 12.2942 144.346 12.1043L145.406 9.97903C145.5 9.78966 145.712 9.72191 145.881 9.82913C146.049 9.93635 146.108 10.1764 146.013 10.3663L144.954 12.4915C144.889 12.6196 144.771 12.6921 144.649 12.6921Z" fill="#4089ED"/>
<path d="M146.036 14.2143C145.918 14.2143 145.803 14.1465 145.738 14.0238C145.638 13.8377 145.691 13.5955 145.856 13.4829L147.702 12.2208C147.867 12.1082 148.081 12.168 148.18 12.3542C148.28 12.5403 148.227 12.7825 148.062 12.8951L146.216 14.1567C146.159 14.1961 146.097 14.2143 146.036 14.2143Z" fill="#4089ED"/>
<path d="M146.583 16.3098C146.395 16.3098 146.24 16.1412 146.235 15.9273C146.229 15.7097 146.38 15.5283 146.572 15.5213L148.729 15.4483C148.921 15.4403 149.082 15.6126 149.088 15.8302C149.093 16.0479 148.942 16.2292 148.75 16.2362L146.593 16.3092C146.59 16.3098 146.586 16.3098 146.583 16.3098Z" fill="#4089ED"/>
<path d="M148.058 19.573C148.004 19.573 147.948 19.5586 147.896 19.5277L145.986 18.3931C145.815 18.2917 145.75 18.0538 145.839 17.8607C145.93 17.6681 146.139 17.5934 146.31 17.6948L148.22 18.8294C148.391 18.9308 148.456 19.1687 148.367 19.3618C148.304 19.4962 148.183 19.573 148.058 19.573Z" fill="#4089ED"/>
<path d="M146.016 22.1015C145.901 22.1015 145.789 22.038 145.723 21.9212L144.552 19.8722C144.448 19.6893 144.494 19.4455 144.655 19.3276C144.817 19.2092 145.032 19.262 145.137 19.4449L146.308 21.4939C146.412 21.6769 146.366 21.9206 146.205 22.0385C146.146 22.0807 146.08 22.1015 146.016 22.1015Z" fill="#4089ED"/>
<path d="M143.137 23.168C142.954 23.168 142.801 23.0069 142.79 22.7978L142.66 20.3626C142.649 20.1455 142.795 19.9583 142.987 19.9455C143.181 19.9284 143.344 20.098 143.356 20.3151L143.485 22.7503C143.497 22.9674 143.35 23.1546 143.158 23.1674C143.151 23.168 143.144 23.168 143.137 23.168Z" fill="#4089ED"/>
<path d="M140.167 22.4986C140.116 22.4986 140.064 22.4858 140.014 22.4586C139.842 22.3631 139.77 22.1273 139.854 21.9315L140.799 19.7386C140.884 19.5428 141.092 19.4612 141.265 19.5572C141.438 19.6527 141.51 19.8885 141.426 20.0842L140.48 22.2772C140.42 22.417 140.296 22.4986 140.167 22.4986Z" fill="#4089ED"/>
<path d="M137.873 20.266C137.762 20.266 137.653 20.2068 137.586 20.0953C137.476 19.916 137.516 19.6706 137.675 19.5474L139.451 18.1626C139.61 18.0383 139.827 18.0837 139.936 18.2634C140.045 18.4427 140.005 18.688 139.846 18.8118L138.07 20.1966C138.01 20.2436 137.941 20.266 137.873 20.266Z" fill="#4089ED"/>
<path d="M136.843 17.0463C136.665 17.0463 136.513 16.8921 136.497 16.6873C136.48 16.4707 136.621 16.2792 136.812 16.2595L138.961 16.0402C139.156 16.0264 139.322 16.1811 139.339 16.3976C139.356 16.6142 139.215 16.8057 139.023 16.8255L136.874 17.0447C136.864 17.0458 136.854 17.0463 136.843 17.0463Z" fill="#4089ED"/>
<path d="M139.313 14.671C139.265 14.671 139.216 14.6598 139.17 14.6358L137.203 13.6329C137.028 13.5433 136.949 13.3102 137.029 13.1118C137.108 12.9133 137.315 12.8253 137.49 12.9144L139.456 13.9173C139.632 14.0069 139.71 14.24 139.631 14.4384C139.573 14.5846 139.446 14.671 139.313 14.671Z" fill="#4089ED"/>
<path d="M140.529 12.9721C140.422 12.9721 140.317 12.9166 140.248 12.811L138.971 10.8447C138.857 10.6692 138.89 10.4228 139.045 10.2937C139.201 10.1651 139.419 10.2025 139.533 10.378L140.81 12.3442C140.923 12.5198 140.89 12.7662 140.735 12.8953C140.673 12.947 140.601 12.9721 140.529 12.9721Z" fill="#4089ED"/>
<path d="M12.1096 154.829C11.9171 154.829 11.761 154.652 11.761 154.434V151.995C11.761 151.777 11.9171 151.601 12.1096 151.601C12.302 151.601 12.4582 151.777 12.4582 151.995V154.434C12.4582 154.653 12.302 154.829 12.1096 154.829Z" fill="#4089ED"/>
<path d="M13.9786 155.386C13.9206 155.386 13.8621 155.369 13.8078 155.335C13.6399 155.228 13.581 154.988 13.6753 154.798L14.7352 152.673C14.8291 152.483 15.0413 152.416 15.2102 152.523C15.3781 152.63 15.4371 152.87 15.3428 153.06L14.2828 155.185C14.2187 155.314 14.1008 155.386 13.9786 155.386Z" fill="#4089ED"/>
<path d="M15.3651 156.905C15.2472 156.905 15.1321 156.838 15.0665 156.715C14.967 156.529 15.0193 156.287 15.1844 156.174L17.0307 154.912C17.1957 154.799 17.4099 154.859 17.509 155.045C17.6085 155.231 17.5561 155.474 17.391 155.586L15.5448 156.848C15.4887 156.887 15.4264 156.905 15.3651 156.905Z" fill="#4089ED"/>
<path d="M15.9113 159.002C15.7235 159.002 15.5688 158.834 15.5631 158.62C15.5575 158.402 15.7089 158.221 15.9009 158.214L18.057 158.141C18.2495 158.133 18.4103 158.306 18.416 158.524C18.4216 158.741 18.2702 158.923 18.0782 158.929L15.9216 159.002C15.9183 159.002 15.915 159.002 15.9113 159.002Z" fill="#4089ED"/>
<path d="M17.3877 162.264C17.3334 162.264 17.2778 162.25 17.2259 162.219L15.316 161.084C15.1452 160.983 15.0796 160.745 15.1693 160.553C15.2594 160.36 15.4693 160.285 15.64 160.387L17.5499 161.521C17.7202 161.623 17.7862 161.861 17.6966 162.054C17.6339 162.188 17.5127 162.264 17.3877 162.264Z" fill="#4089ED"/>
<path d="M15.3456 164.792C15.231 164.792 15.1192 164.728 15.0527 164.611L13.8819 162.563C13.7777 162.38 13.8239 162.136 13.9852 162.018C14.1475 161.899 14.3626 161.952 14.4673 162.135L15.638 164.184C15.7428 164.367 15.6961 164.611 15.5347 164.729C15.4762 164.772 15.4107 164.792 15.3456 164.792Z" fill="#4089ED"/>
<path d="M12.466 165.859C12.283 165.859 12.1297 165.698 12.1184 165.489L11.9891 163.053C11.9778 162.836 12.124 162.649 12.316 162.636C12.5094 162.619 12.6731 162.789 12.6849 163.006L12.8141 165.441C12.8259 165.658 12.6792 165.845 12.4873 165.858C12.4802 165.859 12.4731 165.859 12.466 165.859Z" fill="#4089ED"/>
<path d="M9.49852 165.19C9.44711 165.19 9.39522 165.177 9.34569 165.15C9.17258 165.054 9.10088 164.819 9.18531 164.623L10.1306 162.43C10.2146 162.234 10.4231 162.153 10.5966 162.249C10.7698 162.344 10.8414 162.58 10.757 162.776L9.81173 164.969C9.75135 165.108 9.6273 165.19 9.49852 165.19Z" fill="#4089ED"/>
<path d="M7.20198 162.955C7.09113 162.955 6.98217 162.896 6.91472 162.784C6.80528 162.605 6.84537 162.36 7.00386 162.236L8.78028 160.852C8.93878 160.727 9.15529 160.773 9.26472 160.953C9.37415 161.132 9.33406 161.377 9.17557 161.5L7.39915 162.885C7.33924 162.933 7.27038 162.955 7.20198 162.955Z" fill="#4089ED"/>
<path d="M6.17254 159.735C5.99424 159.735 5.84189 159.581 5.82585 159.376C5.80887 159.16 5.9499 158.967 6.14189 158.948L8.29047 158.729C8.48623 158.715 8.6518 158.87 8.66878 159.086C8.68576 159.302 8.54472 159.495 8.35274 159.514L6.20415 159.733C6.19377 159.735 6.18292 159.735 6.17254 159.735Z" fill="#4089ED"/>
<path d="M8.64209 157.361C8.59397 157.361 8.54539 157.35 8.49916 157.326L6.53265 156.323C6.35718 156.234 6.27935 156.001 6.35812 155.802C6.43737 155.604 6.64397 155.516 6.81897 155.605L8.78548 156.608C8.96095 156.697 9.03926 156.93 8.96001 157.129C8.90199 157.275 8.77463 157.361 8.64209 157.361Z" fill="#4089ED"/>
<path d="M9.85972 155.664C9.75265 155.664 9.64699 155.609 9.57859 155.503L8.3017 153.537C8.18802 153.361 8.22104 153.115 8.37623 152.986C8.53142 152.857 8.74934 152.895 8.86349 153.07L10.1409 155.036C10.2545 155.212 10.2215 155.458 10.0663 155.587C10.0031 155.639 9.93095 155.664 9.85972 155.664Z" fill="#4089ED"/>
<path d="M15.2994 110.158C18.6965 110.158 21.4503 107.044 21.4503 103.202C21.4503 99.3604 18.6965 96.2461 15.2994 96.2461C11.9023 96.2461 9.14844 99.3604 9.14844 103.202C9.14844 107.044 11.9023 110.158 15.2994 110.158Z" stroke="#4089ED" stroke-miterlimit="10"/>
<path d="M7.90504 190.238C8.21203 188.099 6.92767 186.083 5.03632 185.736C3.14497 185.389 1.36286 186.842 1.05586 188.981C0.748869 191.12 2.03325 193.136 3.92459 193.483C5.81594 193.83 7.59804 192.377 7.90504 190.238Z" stroke="#4089ED" stroke-miterlimit="10"/>
<path d="M112.284 26.9905C113.864 25.2034 113.864 22.3058 112.284 20.5186C110.704 18.7314 108.141 18.7314 106.561 20.5186C104.981 22.3058 104.981 25.2034 106.561 26.9905C108.141 28.7777 110.704 28.7777 112.284 26.9905Z" stroke="#4089ED" stroke-miterlimit="10"/>
<path d="M187.832 53.4508C189.744 53.4508 191.293 51.6985 191.293 49.537C191.293 47.3754 189.744 45.6231 187.832 45.6231C185.921 45.6231 184.371 47.3754 184.371 49.537C184.371 51.6985 185.921 53.4508 187.832 53.4508Z" stroke="#4089ED" stroke-miterlimit="10"/>
<path d="M263.622 58.0672C267.076 58.0672 269.875 54.9011 269.875 50.9954C269.875 47.0897 267.076 43.9236 263.622 43.9236C260.168 43.9236 257.369 47.0897 257.369 50.9954C257.369 54.9011 260.168 58.0672 263.622 58.0672Z" stroke="#4089ED" stroke-miterlimit="10"/>
<path d="M295.205 159.233C298.129 159.233 300.5 156.552 300.5 153.245C300.5 149.938 298.129 147.257 295.205 147.257C292.281 147.257 289.91 149.938 289.91 153.245C289.91 156.552 292.281 159.233 295.205 159.233Z" stroke="#4089ED" stroke-miterlimit="10"/>
<path d="M21.5809 217.606C21.5809 219.214 20.4281 220.518 19.0064 220.518C17.5847 220.518 16.4319 219.214 16.4319 217.606C16.4319 215.999 17.5847 214.695 19.0064 214.695C20.4281 214.695 21.5809 215.999 21.5809 217.606Z" stroke="#4089ED" stroke-miterlimit="10"/>
<path d="M26.7125 51.218C26.7125 52.8258 25.5597 54.1295 24.138 54.1295C22.7163 54.1295 21.5635 52.8258 21.5635 51.218C21.5635 49.6102 22.7163 48.3065 24.138 48.3065C25.5597 48.3065 26.7125 49.6102 26.7125 51.218Z" stroke="#4089ED" stroke-miterlimit="10"/>
<path d="M71.4798 167.979L70.3171 164.666C69.9024 163.485 68.893 162.71 67.7693 162.71H56.5945V167.979V170.019V220.555H132.595V167.979H71.4798Z" fill="#458FF6"/>
<path d="M111.421 213.496C82.194 201.582 63.7223 175.497 56.5938 163.775V167.978V170.018V220.554H128.734C124.072 218.653 118.381 216.333 111.421 213.496Z" fill="#4089ED"/>
<path d="M174.574 47.9299L174.569 47.9273C175.07 46.6939 175.357 45.3256 175.357 43.8789C175.357 39.0682 172.261 35.0848 168.202 34.3119C167.756 24.4115 160.517 16.5392 151.651 16.5392C142.499 16.5392 135.079 24.93 135.079 35.2812C135.079 35.6946 135.095 36.1038 135.118 36.5108C135.105 36.5108 135.092 36.5086 135.079 36.5086C130.247 36.5086 126.329 40.9385 126.329 46.4032C126.329 46.6278 126.346 46.847 126.359 47.0679C116.92 49.629 116.99 59.2691 116.99 59.2691L183.706 58.3958C183.095 47.1452 174.574 47.9299 174.574 47.9299Z" fill="#4089ED"/>
<path d="M149.885 58.6574C143.738 58.5566 139.444 53.7299 140.016 47.2606C140.587 40.7914 148.017 39.86 148.017 39.86C148.017 39.86 143.132 36.0026 144.763 27.4038C145.623 22.8619 148.722 19.092 151.454 16.5453C142.393 16.6658 135.08 25.0059 135.08 35.2813C135.08 35.6948 135.096 36.1039 135.119 36.511C135.106 36.511 135.093 36.5088 135.08 36.5088C130.248 36.5088 126.33 40.9386 126.33 46.4034C126.33 46.628 126.347 46.8472 126.36 47.0681C116.921 49.6292 116.991 59.2693 116.991 59.2693L151.812 58.8132C151.066 58.7209 150.413 58.6659 149.885 58.6574Z" fill="#8078EF"/>
</svg>
